<svg width="12" height="13" viewBox="0 0 12 13" fill="none" xmlns="http://www.w3.org/2000/svg">
<path d="M0 10.0156V11C0 11.8438 2.01562 12.5 4.5 12.5C6.98438 12.5 9 11.8438 9 11V10.0156C8.01562 10.6953 6.25781 11 4.5 11C2.71875 11 0.960938 10.6953 0 10.0156ZM7.5 3.5C9.98438 3.5 12 2.84375 12 2C12 1.17969 9.98438 0.5 7.5 0.5C5.01562 0.5 3 1.17969 3 2C3 2.84375 5.01562 3.5 7.5 3.5ZM0 7.55469V8.75C0 9.59375 2.01562 10.25 4.5 10.25C6.98438 10.25 9 9.59375 9 8.75V7.55469C8.01562 8.35156 6.25781 8.75 4.5 8.75C2.71875 8.75 0.960938 8.35156 0 7.55469ZM9.75 7.8125C11.0859 7.55469 12 7.0625 12 6.5V5.51562C11.4375 5.89062 10.6406 6.14844 9.75 6.3125V7.8125ZM4.5 4.25C2.01562 4.25 0 5.09375 0 6.125C0 7.17969 2.01562 8 4.5 8C6.98438 8 9 7.17969 9 6.125C9 5.09375 6.98438 4.25 4.5 4.25ZM9.63281 5.58594C11.0391 5.32812 12 4.83594 12 4.25V3.26562C11.1562 3.85156 9.72656 4.15625 8.22656 4.25C8.90625 4.57812 9.42188 5.02344 9.63281 5.58594Z" fill="#94E107"/>
</svg>
