<svg width="12" height="13" viewBox="0 0 12 13" fill="none" xmlns="http://www.w3.org/2000/svg">
<path d="M11.8125 6.5C11.8125 3.3125 9.1875 0.6875 6 0.6875C2.78906 0.6875 0.1875 3.3125 0.1875 6.5C0.1875 9.71094 2.78906 12.3125 6 12.3125C9.1875 12.3125 11.8125 9.71094 11.8125 6.5ZM5.32031 9.59375C5.17969 9.73438 4.92188 9.73438 4.78125 9.59375L2.34375 7.15625C2.20312 7.01562 2.20312 6.75781 2.34375 6.61719L2.88281 6.10156C3.02344 5.9375 3.25781 5.9375 3.39844 6.10156L5.0625 7.74219L8.57812 4.22656C8.71875 4.0625 8.95312 4.0625 9.09375 4.22656L9.63281 4.74219C9.77344 4.88281 9.77344 5.14062 9.63281 5.28125L5.32031 9.59375Z" fill="white"/>
</svg>
