<svg width="12" height="13" viewBox="0 0 12 13" fill="none" xmlns="http://www.w3.org/2000/svg">
<path d="M6 0.6875C2.78906 0.6875 0.1875 3.28906 0.1875 6.5C0.1875 9.71094 2.78906 12.3125 6 12.3125C9.21094 12.3125 11.8125 9.71094 11.8125 6.5C11.8125 3.28906 9.21094 0.6875 6 0.6875ZM7.33594 8.91406L5.25 7.39062C5.17969 7.34375 5.15625 7.27344 5.15625 7.17969V3.21875C5.15625 3.07812 5.27344 2.9375 5.4375 2.9375H6.5625C6.70312 2.9375 6.84375 3.07812 6.84375 3.21875V6.45312L8.32031 7.53125C8.4375 7.625 8.48438 7.8125 8.39062 7.92969L7.71094 8.84375C7.64062 8.96094 7.45312 8.98438 7.33594 8.91406Z" fill="#B8CCD9"/>
</svg>
